#!OML:ASF F:\VICON\USERDATA\INSTALL\rory3\rory3.ASF
:FULLY-SPECIFIED
:DEGREES
65
root -0.5688920170097173 17.401565239298332 29.4246983616647 3.1110078069670437 3.8056903965403217 4.07482427244137
lfemur 5.8161401743278915 -6.7586578915394036 -33.57039163943143
ltibia 11.022451394743975
lfoot -37.5290967690478 8.667897672888852
ltoes -21.419231910578006
rfemur -32.582772978114576 -10.41112832700113 12.364005309088089
rtibia 100.59337300668477
rfoot 16.162349190668788 -6.0277198334365805
rtoes 22.0188278861953
lowerback 1.0 0.08546854996289988 -4.858744255135472
upperback 0.23140036201061298 0.3801130932825727 -1.7821556604702968
thorax -10.859076678299454 0.08702161444578221 2.4208882366762725
lowerneck -24.692461719542784 -4.051893950468728 -1.8305296532499349
upperneck 6.728319879574184 -6.2039877379195945 5.83167483996637
head 6.296197762680092 -2.2136306452989802 1.4344898489994797
lclavicle 1.6401299962382026e-14 -3.05853488149536e-14
lhumerus -35.202774362832145 -15.581785300102677 92.87631759571774
lradius 130.49806859677616
lwrist 44.094401594643294
lhand -28.475097749553612 -1.6726272129168847
lfingers nan
lthumb -2.1417393753077176 28.139718375958502
rclavicle 1.0552786527236022e-14 -3.4557145625696143e-14
rhumerus -58.91634314772275 8.77291874659572 -103.34505907608192
rradius 110.55171228740595
rwrist 5.397584526314983
rhand -18.273641414048864 1.0
rfingers nan
rthumb 7.820795280517076 -0.3007773191015879
66
root -0.5852922492154682 17.430979169218066 29.81968712245062 2.9599686377565604 2.7411582899950395 3.348395719995877
lfemur 6.816139043809937 -6.118560322660215 -32.79879258510933
ltibia 10.634545573114245
lfoot -37.4808033800484 8.869125545418662
ltoes -22.919605632856175
rfemur -35.10940516006005 -9.740364525740258 13.91216279719523
rtibia 100.11782371381685
rfoot 14.274174148018949 -6.4106151783023995
rtoes 15.811017414655424
lowerback 1.0 0.31858845647172074 -4.790709775612727
upperback 0.2462177761971046 0.6048168553413755 -1.484308674138256
thorax -11.055609515423958 0.23077815023483506 2.5427735188302028
lowerneck -25.41493884183435 -4.012695318287818 -1.8667634570175233
upperneck 7.096634965890206 -6.221226509567423 5.729430289354592
head 6.550298619819886 -2.2103358225768344 1.3663198553976583
lclavicle 1.228847453498519e-14 1.857825075360009e-14
lhumerus -33.59769508745953 -15.920281508323484 92.62996859301947
lradius 130.86845711543216
lwrist 44.96517821592289
lhand -27.03910360808993 -0.8854181092426372
lfingers nan
lthumb -0.6933582416502793 29.00255734286325
rclavicle 6.992871135068061e-15 1.4922625068099918e-14
rhumerus -59.478139615044675 8.86011009899969 -102.8261261241683
rradius 111.02326493831362
rwrist 5.236944526963143
rhand -17.34963949061782 1.0
rfingers nan
rthumb 8.70256791059467 0.29688189624396166
67
root -0.6016311702280835 17.44844059516072 30.5888852194553 2.7894292245277232 2.040900352214405 2.4548406172811523
lfemur 7.808917943964058 -5.53602077581453 -31.761182725090737
ltibia 10.21623970948054
lfoot -37.144820039456256 9.218585680053632
ltoes -24.678932434174236
rfemur -37.647396792525555 -9.089328088796076 15.963687293114175
rtibia 98.83244434307103
rfoot 14.52201195045163 -6.219535393804799
rtoes 16.592748693413967
lowerback 1.0 0.47453779105145666 -4.464698377774238
upperback 0.24791831810335763 0.7641587257406685 -1.0828628894239458
thorax -11.07488200729347 0.34268359538035986 2.6437914289136657
lowerneck -25.73842771790676 -3.939367818685198 -1.9191838260179819
upperneck 7.426012532859911 -6.184845774033 5.703548382174402
head 6.769335289218335 -2.17449905701086 1.339272602637367
lclavicle 1.296134008098317e-14 6.58903322368173e-16
lhumerus -32.45249743915626 -15.955643572842728 92.51183665654469
lradius 131.3365085458674
lwrist 43.913032052446844
lhand -24.727873540045127 0.4335142585871723
lfingers nan
lthumb 1.617884785316531 30.43123551654851
rclavicle 7.20039133863153e-15 -3.31292076923678e-15
rhumerus -60.057501812939336 8.994295845222709 -102.50238532005235
rradius 111.69113389624688
rwrist 3.654164796624194
rhand -16.37369268710447 1.0
rfingers nan
rthumb 9.696850084134718 1.3434471389541711
68
root -0.5785435676667205 17.46137198103259 31.609754171942406 2.682395302211797 2.0725784387754804 1.9516845535343483
lfemur 9.156577911287147 -5.350393185803929 -31.137301241294743
ltibia 9.552591927715426
lfoot -35.93757729520364 8.94574607378701
ltoes -25.182603223382237
rfemur -39.977713536387085 -8.970345648225582 17.29743504523877
rtibia 96.81459928051981
rfoot 13.555031900013203 -5.984546927265709
rtoes 16.556194268101596
lowerback 1.0 0.4299656754224915 -4.006749721111518
upperback 0.14498450011983932 0.6596541318108982 -0.7325097497385593
thorax -11.40661581571845 0.32750322073594745 2.734927776855861
lowerneck -25.727369915414084 -3.7739617691853016 -1.9840254358729112
upperneck 7.627439231068734 -5.982673781365548 5.612128227988105
head 6.883230872028925 -2.0750879872672385 1.3238102242064358
lclavicle 1.3636463208142697e-14 -1.417920701240184e-14
lhumerus -31.781676139399707 -15.717699922350501 92.59965323959335
lradius 131.9955563403176
lwrist 42.983238251581476
lhand -24.9301511531095 1.580283169566281
lfingers nan
lthumb 1.4615670928776705 31.597025637684034
rclavicle 7.906699478534747e-15 -1.820954338817666e-14
rhumerus -60.75510852460859 9.295764879228532 -102.09811899655573
rradius 112.72436572975423
rwrist 1.579952535932847
rhand -15.73185376544533 1.0
rfingers nan
rthumb 10.32264245919478 2.6160577802067975
69
root -0.5340598135195347 17.484643862629188 32.57277987221357 2.6738215393029723 2.550892224388457 2.0393052563655156
lfemur 10.72292854716612 -5.566908068315794 -31.124647726185756
ltibia 8.64721988784563
lfoot -33.83465017201375 8.230746892676763
ltoes -27.272063437194795
rfemur -41.887043785267906 -9.317013655176869 17.635583801688462
rtibia 94.22938152808683
rfoot 11.886349597704736 -5.411059026646001
rtoes 16.80071967602961
lowerback 1.0 0.26046478816045104 -3.8741979227013763
upperback -0.05869997845893693 0.33354801092396535 -0.5576539326090304
thorax -11.86814847503199 0.22235828467201166 2.8766987922875513
lowerneck -25.067097104591806 -3.5664220808185108 -2.0204700657285644
upperneck 7.393118233366348 -5.728342922306623 5.537241864206771
head 6.739441295466589 -1.9625672108794068 1.3243567215864536
lclavicle 1.749472874778885e-14 2.4304814385538023e-14
lhumerus -31.340071149326754 -15.453048254597888 92.69979242129304
lradius 132.77788076722845
lwrist 43.04273279018951
lhand -25.325845524695694 -0.12696746497493855
lfingers nan
lthumb 1.1472887692981235 29.9009442117199
rclavicle 1.216563937020746e-14 2.056476720228163e-14
rhumerus -61.502617222429 9.760823550189674 -101.73312310420441
rradius 113.74801566585501
rwrist -0.7013915349237791
rhand -15.561134887749569 1.0
rfingers nan
rthumb 10.477887541066114 2.919337400434147
70
root -0.4852492740229015 17.522252168661222 33.305958957554914 2.772832113738737 3.16021830632501 2.3692815857921605
lfemur 12.153006752008523 -5.861700823497939 -31.336673677945917
ltibia 7.580836673206889
lfoot -31.017418512284028 6.691871344875196
ltoes -28.4989037699525
rfemur -43.2832457985905 -9.759072463854249 17.57240800323401
rtibia 91.0783612336353
rfoot 9.524573355747743 -4.569817078316398
rtoes 11.078286879836023
lowerback 1.0 0.0029765178743229592 -4.021795849564244
upperback -0.0057470050801423644 -0.12007923205536875 -0.3400139414016188
thorax -11.424595084908946 0.07217832878113939 3.141450561357947
lowerneck -25.401508958644882 -3.3048096094271946 -2.1415315002002036
upperneck 7.1769796716392795 -5.354309771985101 5.398934236846926
head 6.708376145175115 -1.8003630032714582 1.330730941464686
lclavicle 3.111705368547835e-14 1.3663948192445703e-14
lhumerus -30.82118670409248 -15.053655340988804 92.8076343171094
lradius 133.57479696860858
lwrist 43.99050109461898
lhand -26.112649791747348 -1.545178272504917
lfingers nan
lthumb 0.44334202560823766 28.47475291532044
rclavicle 2.5064442722867573e-14 9.497308049079982e-15
rhumerus -61.953129984857576 10.449171631301061 -100.98274681302408
rradius 114.82113949499188
rwrist -2.5783214658613787
rhand -15.183792780808085 1.0
rfingers nan
rthumb 10.811111942771547 2.7573379803836646
71
root -0.4278697254055408 17.57986320392084 34.10931545732678 2.7904360797603687 3.7763568364171 3.310077585568786
lfemur 13.580105719308055 -6.1406306283206336 -32.12970607511474
ltibia 6.4532577878851
lfoot -27.741137681414475 5.328152646519509
ltoes -30.124192315937357
rfemur -43.85475448732268 -10.279495622828598 16.551509700348344
rtibia 87.53461106139108
rfoot 6.200628151472197 -3.4867149159108406
rtoes -1.929461317912239
lowerback 1.0 -0.2599610333611607 -4.635258170921317
upperback 0.24920406919133675 -0.6764805299721444 -0.34203338956340645
thorax -10.58042434174944 -0.13298374575585842 3.473393917205501
lowerneck -26.08388357683051 -3.010470143669715 -2.3244858056843487
upperneck 7.108266683383891 -4.923703010321079 5.401610612266001
head 6.79778425203945 -1.5997074180921076 1.4015488568759074
lclavicle 8.996142333168927e-15 1.3224501493484257e-15
lhumerus -30.41894093156817 -14.63612101831685 92.89224809892139
lradius 134.31705899241513
lwrist 45.75168611516163
lhand -27.809082195083533 -2.859115291502696
lfingers nan
lthumb -1.1644787243517518 27.094705097694657
rclavicle 3.0919741954319176e-15 -2.7382284647216802e-15
rhumerus -62.24643628782475 11.03198441719956 -100.30955944520711
rradius 115.79851520655507
rwrist -3.604128350681716
rhand -15.213394756024027 1.0
rfingers nan
rthumb 10.770404916692478 3.327729338359497
